<?xml version="1.0" encoding="UTF-8"?>
<svg id="Layer_2" data-name="Layer 2" xmlns="http://www.w3.org/2000/svg" viewBox="0 0 854.53 273.6">
  <defs>
    <style>
      .cls-1 {
        fill: #ff3900;
      }
    </style>
  </defs>
  <g id="Layer_1-2" data-name="Layer 1">
    <g>
      <path class="cls-1" d="M158.09,0c-11.96,0-21.65,9.69-21.65,21.65V251.54c0,11.96,9.69,21.65,21.65,21.65s21.65-9.69,21.65-21.65V21.65c0-11.96-9.69-21.65-21.65-21.65Z"/>
      <path class="cls-1" d="M567.6,77.13c-9.4-7.39-23.01-5.76-30.4,3.64l-44.86,57.05-44.86-57.05c-7.39-9.4-21-11.03-30.4-3.64-9.4,7.39-11.03,21-3.64,30.4l51.36,65.32-51.36,65.32c-7.39,9.4-5.76,23.01,3.64,30.4,3.97,3.12,8.68,4.63,13.37,4.63,6.41,0,12.76-2.84,17.03-8.27l44.86-57.05,44.86,57.05c4.27,5.43,10.62,8.27,17.03,8.27,4.68,0,9.4-1.51,13.37-4.63,9.4-7.39,11.03-21,3.64-30.4l-51.36-65.32,51.36-65.32c7.39-9.4,5.76-23.01-3.64-30.4Z"/>
      <path class="cls-1" d="M90.69,21.98C40.68,21.98,0,62.67,0,112.67V251.48c0,11.96,9.69,21.65,21.65,21.65s21.65-9.69,21.65-21.65v-74.02l18.47,.15c.06,0,.12,0,.18,0,11.87,0,21.55-9.58,21.64-21.47,.1-11.96-9.52-21.73-21.47-21.82l-18.82-.15v-21.49c0-26.13,21.26-47.39,47.39-47.39,11.96,0,21.65-9.69,21.65-21.65s-9.69-21.65-21.65-21.65Z"/>
      <path class="cls-1" d="M626.38,72.5c-11.96,0-21.65,9.69-21.65,21.65V251.95c0,11.96,9.69,21.65,21.65,21.65s21.65-9.69,21.65-21.65V94.14c0-11.96-9.69-21.65-21.65-21.65Z"/>
      <circle class="cls-1" cx="626.38" cy="23.56" r="23.56"/>
      <path class="cls-1" d="M817.58,213.18c-22.24,22.24-58.44,22.24-80.68,0-22.24-22.24-22.24-58.44,0-80.68,10.78-10.78,25.1-16.71,40.34-16.71s29.57,5.93,40.34,16.71c8.45,8.45,22.16,8.45,30.61,0,8.45-8.45,8.45-22.16,0-30.62-18.95-18.95-44.15-29.39-70.95-29.39s-52,10.44-70.95,29.39c-39.12,39.12-39.12,102.78,0,141.91,19.56,19.56,45.26,29.34,70.95,29.34s51.39-9.78,70.95-29.34c8.45-8.45,8.45-22.16,0-30.61-8.45-8.45-22.16-8.45-30.61,0Z"/>
      <path class="cls-1" d="M376.76,101.67c-18.95-18.95-44.15-29.39-70.95-29.39s-52,10.44-70.95,29.39c-18.95,18.95-29.39,44.15-29.39,70.95s10.44,52,29.39,70.95c18.95,18.95,44.15,29.39,70.96,29.39s52-10.44,70.95-29.39c8.45-8.45,8.45-22.16,0-30.61-8.45-8.46-22.16-8.45-30.62,0-10.77,10.78-25.1,16.71-40.34,16.71-7.69,0-15.15-1.52-22.04-4.4l92.99-92.99c8.45-8.45,8.45-22.16,0-30.62Zm-111.3,30.62c10.78-10.78,25.1-16.71,40.34-16.71,7.69,0,15.15,1.52,22.04,4.4l-74.69,74.69c-2.88-6.89-4.4-14.34-4.4-22.04,0-15.24,5.93-29.56,16.71-40.34Z"/>
    </g>
  </g>
</svg>